<?xml version="1.0" encoding="utf-8"?>
<!-- Generator: Adobe Illustrator 24.2.1, SVG Export Plug-In . SVG Version: 6.00 Build 0)  -->
<svg version="1.1" id="Layer_1" xmlns="http://www.w3.org/2000/svg" xmlns:xlink="http://www.w3.org/1999/xlink" x="0px" y="0px"
	 viewBox="0 0 2000 700" style="enable-background:new 0 0 2000 700;" xml:space="preserve">
<style type="text/css">
	.st0{fill:#3B789A;stroke:#282828;stroke-width:0.25;stroke-miterlimit:10;}
	.st1{fill:#405A68;stroke:#282828;stroke-width:0.25;stroke-miterlimit:10;}
	.st2{fill:#FFFFFF;}
	.st3{fill:#E0DED8;}
	.st4{fill:#D5D2CA;}
</style>
<g>
	<path class="st0" d="M1685.5,384.7c0,29.7-6.9,52.4-20.6,68.2c-13.8,15.8-33.7,23.7-59.8,23.7c-11.6,0-22.4-2-32.3-6v-46.8
		c8.6,6.5,18.1,9.7,28.8,9.7c22.8,0,34.2-16.9,34.2-50.7V251h49.8L1685.5,384.7L1685.5,384.7z"/>
	<path class="st0" d="M1708,464.1v-49.5c9,7.5,18.7,13.2,29.2,16.9c10.5,3.8,21.1,5.6,31.8,5.6c6.3,0,11.8-0.6,16.5-1.7
		c4.7-1.1,8.6-2.7,11.8-4.7c3.1-2,5.5-4.4,7-7.1c1.5-2.7,2.3-5.7,2.3-8.9c0-4.3-1.2-8.2-3.7-11.6c-2.5-3.4-5.9-6.5-10.1-9.4
		c-4.3-2.9-9.4-5.7-15.2-8.3c-5.9-2.7-12.2-5.4-19-8.2c-17.3-7.2-30.2-16-38.7-26.4c-8.5-10.4-12.8-23-12.8-37.7
		c0-11.5,2.3-21.5,7-29.8c4.6-8.3,10.9-15.1,18.9-20.5c8-5.4,17.2-9.3,27.8-11.8c10.5-2.5,21.6-3.8,33.4-3.8
		c11.5,0,21.8,0.7,30.7,2.1c8.9,1.4,17.1,3.5,24.7,6.4V302c-3.7-2.6-7.8-4.8-12.1-6.8c-4.4-2-8.9-3.6-13.5-4.9s-9.3-2.2-13.8-2.9
		c-4.6-0.6-8.9-0.9-13.1-0.9c-5.7,0-10.8,0.5-15.5,1.6c-4.6,1.1-8.6,2.6-11.8,4.6c-3.2,2-5.7,4.3-7.4,7c-1.7,2.7-2.6,5.8-2.6,9.2
		c0,3.7,1,7,2.9,10c2,2.9,4.7,5.7,8.4,8.3c3.6,2.6,8,5.2,13.1,7.7c5.2,2.5,11,5.1,17.5,7.8c8.9,3.7,16.8,7.7,23.9,11.8
		s13.1,8.9,18.2,14.1c5,5.3,8.9,11.3,11.6,18c2.7,6.8,4,14.6,4,23.6c0,12.4-2.3,22.8-7,31.2c-4.7,8.4-11.1,15.2-19.1,20.4
		c-8,5.2-17.4,8.9-28.1,11.2c-10.7,2.3-21.9,3.4-33.8,3.4c-12.2,0-23.7-1-34.7-3.1C1725.5,471.4,1716,468.3,1708,464.1z"/>
</g>
<circle class="st0" cx="1523.6" cy="445.2" r="36.1"/>
<g>
	<path class="st1" d="M630.2,441.9c2.9,2.3,6,4.3,9.4,6.1c3.4,1.8,6.9,3.3,10.4,4.6c3.6,1.3,7.2,2.3,10.8,2.9c3.6,0.6,7.1,1,10.4,1
		c22.6,0,34-8.5,34-25.5c0-3.9-0.8-7.2-2.4-10.1c-1.6-2.8-3.9-5.4-6.9-7.7c-3-2.3-6.6-4.5-10.7-6.5c-4.2-2-8.9-4.1-14.2-6.3
		c-7.1-2.9-13.1-5.8-18.2-8.8s-9.2-6.2-12.5-9.8c-3.3-3.5-5.7-7.4-7.3-11.6c-1.6-4.2-2.4-9-2.4-14.4c0-6.8,1.5-12.8,4.4-18
		c2.9-5.3,6.9-9.7,11.8-13.4c5-3.7,10.7-6.5,17.2-8.4c6.5-1.9,13.3-2.9,20.5-2.9c13.2,0,24.7,2.5,34.6,7.4v20.1
		c-11.4-7.3-23.7-11-36.9-11c-4.8,0-9.1,0.6-13,1.8c-3.9,1.2-7.3,2.9-10.1,5.1c-2.8,2.2-4.9,4.8-6.5,7.8c-1.5,3-2.3,6.4-2.3,10.1
		c0,3.8,0.6,7.1,1.8,9.9c1.2,2.8,3.1,5.4,5.6,7.7c2.5,2.3,5.8,4.5,9.8,6.6s8.9,4.3,14.7,6.7c7.3,3,13.7,5.9,19.1,8.9
		c5.4,2.9,9.8,6.1,13.3,9.5c3.5,3.4,6.1,7.3,7.7,11.5c1.7,4.2,2.5,9.1,2.5,14.7c0,6.9-1.4,13-4.2,18.3s-6.8,9.9-11.8,13.6
		c-5,3.7-10.9,6.5-17.7,8.3c-6.8,1.9-14.1,2.8-22,2.8c-15.4,0-28.4-3.2-38.9-9.7L630.2,441.9L630.2,441.9z"/>
	<path class="st1" d="M766.6,444.8v94.8h-19.1V316.8h19.1V346h0.6c5.7-10.6,13.2-18.7,22.7-24.4c9.5-5.6,20.2-8.4,32.1-8.4
		c9.7,0,18.4,1.8,26.1,5.3c7.7,3.5,14.2,8.5,19.5,15c5.3,6.5,9.4,14.3,12.2,23.5c2.8,9.2,4.2,19.6,4.2,31.1
		c0,12.6-1.6,24.1-4.8,34.5c-3.2,10.4-7.7,19.3-13.7,26.7s-13.2,13.2-21.7,17.4s-18.1,6.2-28.7,6.2c-21.5,0-37.5-9.4-48.1-28.2
		L766.6,444.8L766.6,444.8z M766.6,405.9c0,7,1.2,13.5,3.5,19.6c2.3,6.1,5.6,11.5,9.8,16.1c4.2,4.6,9.2,8.3,15.1,11
		c5.9,2.7,12.4,4,19.6,4c7.6,0,14.5-1.6,20.7-4.8c6.2-3.2,11.4-7.8,15.7-13.8c4.3-6,7.6-13.2,10-21.6c2.3-8.4,3.5-17.9,3.5-28.3
		c0-8.9-1.1-17-3.3-24.2c-2.2-7.2-5.3-13.3-9.3-18.4c-4-5.1-8.9-8.9-14.6-11.6c-5.7-2.7-12.1-4-19.1-4c-7.9,0-15.1,1.5-21.5,4.4
		c-6.4,2.9-11.8,6.9-16.2,12c-4.5,5.1-7.9,11-10.3,17.8c-2.4,6.8-3.6,14-3.6,21.7L766.6,405.9L766.6,405.9z"/>
	<path class="st1" d="M916.5,396.5c0.1,9.3,1.3,17.7,3.7,25.2s5.8,13.8,10.3,18.9c4.5,5.2,9.9,9.1,16.3,11.8
		c6.4,2.7,13.6,4.1,21.7,4.1c17.2,0,33.4-6,48.7-18v18.8c-14.6,10.4-32.3,15.6-53,15.6c-10.2,0-19.5-1.8-27.9-5.4
		c-8.3-3.6-15.4-8.8-21.3-15.6c-5.9-6.8-10.4-15.2-13.6-25.1c-3.2-9.9-4.8-21.3-4.8-34c0-11.4,1.7-22,5.2-31.7
		c3.5-9.7,8.3-18.1,14.5-25.3c6.2-7.1,13.5-12.7,21.9-16.7c8.4-4,17.7-6,27.7-6c9.8,0,18.5,1.7,26.1,5.1c7.5,3.4,13.9,8.3,19,14.7
		c5.1,6.4,9,14.1,11.7,23.2c2.7,9.1,4,19.4,4,30.7v9.5L916.5,396.5L916.5,396.5z M1007,379.8c-0.3-15.9-4.1-28.2-11.3-36.9
		c-7.3-8.7-17.3-13.1-30.2-13.1c-6.5,0-12.4,1.1-18,3.4c-5.5,2.3-10.4,5.6-14.5,9.9c-4.2,4.3-7.6,9.6-10.4,15.8
		c-2.7,6.2-4.6,13.2-5.7,20.9L1007,379.8L1007,379.8z"/>
	<path class="st1" d="M1150.3,462.5c-11.3,6.9-25,10.4-41.1,10.6c-10.9,0.1-20.8-1.8-29.5-5.7c-8.7-3.9-16.2-9.3-22.3-16.2
		c-6.2-6.9-10.9-15-14.2-24.4c-3.3-9.4-4.9-19.6-4.9-30.6c0-11.4,1.7-22.2,5.2-32.3c3.5-10.1,8.5-18.9,15.2-26.4
		c6.7-7.5,14.8-13.4,24.4-17.8c9.6-4.4,20.7-6.6,33.1-6.6c12.6,0,24.1,2.4,34.6,7.3v20.3c-11.1-7.3-23.1-11-36.1-11
		c-9,0-17.1,1.7-24.1,5.1c-7.1,3.4-13,8.1-17.8,14c-4.8,5.9-8.5,12.8-11,20.7c-2.5,7.9-3.8,16.3-3.8,25.1c0,8.1,1.1,15.9,3.2,23.4
		c2.1,7.4,5.4,14,9.8,19.7c4.4,5.7,10,10.3,16.8,13.6c6.8,3.4,14.7,5.1,23.8,5.1c14.3,0,27.2-4.3,38.7-12.8L1150.3,462.5
		L1150.3,462.5z"/>
	<path class="st1" d="M1237.2,467.6c-6.6,3.3-13.7,4.9-21.5,4.9c-24.6,0-36.9-14.2-36.9-42.6v-96.4H1152v-16.7h26.8v-38.4l19.1-6.3
		v44.7h39.3v16.7h-39.3v93.4c0,10.3,1.7,17.8,5.1,22.3c3.4,4.6,9.1,6.9,17.1,6.9c6,0,11.7-1.8,17.1-5.4V467.6z"/>
	<path class="st1" d="M1313.5,472.9c-11.3,0-21.5-1.9-30.5-5.7c-9-3.8-16.7-9.1-23-16c-6.4-6.9-11.2-15.2-14.6-24.8
		c-3.4-9.6-5.1-20.3-5.1-32c0-12.7,1.8-24.1,5.4-34.1c3.6-10,8.7-18.5,15.3-25.6c6.6-7,14.6-12.3,23.9-16c9.3-3.7,19.8-5.5,31.3-5.5
		c11,0,21,1.8,29.8,5.4c8.8,3.6,16.3,8.9,22.5,15.7c6.2,6.9,10.9,15.2,14.2,25s4.9,21,4.9,33.5c0,11.9-1.7,22.8-5.1,32.6
		c-3.4,9.8-8.3,18.2-14.7,25.3c-6.4,7.1-14.1,12.5-23.2,16.4C1335.3,471,1325,472.9,1313.5,472.9z M1315,329.7
		c-8.3,0-15.9,1.4-22.6,4.3c-6.8,2.9-12.5,7.1-17.4,12.6c-4.8,5.5-8.5,12.3-11.1,20.3c-2.6,8-3.9,17.1-3.9,27.2
		c0,9.5,1.3,18.1,3.9,25.8c2.6,7.6,6.2,14.2,10.9,19.7c4.7,5.5,10.5,9.7,17.2,12.6c6.8,2.9,14.3,4.4,22.6,4.4
		c8.5,0,16.1-1.4,22.6-4.2c6.6-2.8,12.1-7,16.7-12.4c4.6-5.4,8-12,10.4-19.9c2.3-7.8,3.5-16.8,3.5-26.8c0-20.6-4.6-36.3-13.7-47.2
		C1345,335.2,1331.9,329.7,1315,329.7z"/>
	<path class="st1" d="M1486.4,336.3c-4.5-3.3-10.2-4.9-17.3-4.9c-5.1,0-9.5,1-13.4,2.9c-3.9,1.9-7.3,4.5-10.2,7.8
		c-2.9,3.3-5.4,7.1-7.4,11.4c-2,4.3-3.7,8.8-4.9,13.5c-1.2,4.7-2.1,9.4-2.7,14.2c-0.5,4.8-0.8,9.3-0.8,13.6v74.6h-18.9V316.8h18.9
		v32.6h0.6c1.8-5.6,4-10.6,6.8-15c2.7-4.4,5.9-8.1,9.5-11.2c3.6-3,7.5-5.3,11.7-6.9c4.2-1.6,8.7-2.4,13.3-2.4c3.1,0,5.8,0.2,8.3,0.6
		c2.4,0.4,4.6,1,6.6,1.8L1486.4,336.3L1486.4,336.3z"/>
</g>
<path class="st2" d="M339.1,137.9L151.3,246.3v216.9l187.8,108.5l187.8-108.4v-217L339.1,137.9z"/>
<polygon class="st0" points="526.9,246.3 468.1,212.4 411.6,245 470.3,279 "/>
<polygon class="st0" points="207.8,279 395.6,170.6 339.1,137.9 151.3,246.3 "/>
<polygon class="st0" points="280.3,388.7 339.1,422.6 397.9,388.7 339.1,354.7 "/>
<polygon class="st1" points="470.3,279 470.3,430.5 339.1,506.3 207.8,430.5 207.8,279 151.3,246.3 151.3,463.2 339.1,571.6 
	526.9,463.2 526.9,246.3 "/>
<polygon class="st1" points="339.1,286.9 280.3,320.8 280.3,388.7 339.1,354.7 397.9,388.7 397.9,320.8 "/>
<polygon class="st3" points="470.3,279 397.9,320.8 397.9,388.7 339.1,422.6 339.1,506.3 470.3,430.5 "/>
<polygon class="st4" points="207.8,279 280.3,320.8 280.3,388.7 339.1,422.6 339.1,506.3 207.8,430.5 "/>
<polygon class="st2" points="395.6,170.6 468.1,212.4 411.6,245 470.3,279 397.9,320.8 339.1,286.9 280.3,320.8 207.8,279 "/>
</svg>
