<?xml version="1.0" encoding="utf-8"?>
<!-- Generator: Adobe Illustrator 16.0.0, SVG Export Plug-In . SVG Version: 6.00 Build 0)  -->
<!DOCTYPE svg PUBLIC "-//W3C//DTD SVG 1.0//EN" "http://www.w3.org/TR/2001/REC-SVG-20010904/DTD/svg10.dtd">
<svg version="1.0" id="Layer_1" xmlns="http://www.w3.org/2000/svg" xmlns:xlink="http://www.w3.org/1999/xlink" x="0px" y="0px"
	 width="2000px" height="700px" viewBox="0 0 2000 700" enable-background="new 0 0 2000 700" xml:space="preserve">
<polygon fill="#364148" stroke="#282828" stroke-width="0.25" stroke-miterlimit="10" points="284.584,308.992 337.795,294.038 
	337.795,436.39 485.682,385.994 501.389,250.261 547.535,238.275 524.006,413.359 292.901,500.26 "/>
<polygon fill="#364148" stroke="#282828" stroke-width="0.25" stroke-miterlimit="10" points="295.538,230.617 399.761,207.538 
	477.421,250.912 465.446,369.825 354.32,406.524 353.768,274.046 "/>
<polygon fill="#61B0E1" stroke="#282828" stroke-width="0.25" stroke-miterlimit="10" points="229.174,458.666 282.638,521.533 
	521.124,432.143 515.012,471.504 286.159,564.034 230.826,494.583 "/>
<polygon fill="#405A68" stroke="#282828" stroke-width="0.25" stroke-miterlimit="10" points="213.182,470.618 210.43,410.807 
	275.213,487.626 267.946,307.319 212.523,258.564 221.455,392.464 163.314,329.017 174.625,420.278 "/>
<polyline fill="#3B789A" stroke="#282828" stroke-width="0.25" stroke-miterlimit="10" points="202.918,348.521 202.799,346.987 
	192.908,234.263 206.022,230.841 253.905,220.506 199.629,180.583 144.47,189.775 159.365,299.379 "/>
<polygon fill="#3B789A" stroke="#282828" stroke-width="0.25" stroke-miterlimit="10" points="221.455,244.414 271.675,233.576 
	332.292,278.419 277.588,293.794 "/>
<polygon fill="#3B789A" stroke="#282828" stroke-width="0.25" stroke-miterlimit="10" points="275.468,215.854 401.411,188.95 
	490.495,236.02 538.409,223.575 381.583,145.162 220.873,175.697 "/>
<g>
	<path fill="#3B789A" stroke="#282828" stroke-width="0.25" stroke-miterlimit="10" d="M1685.461,384.684
		c0,29.685-6.883,52.41-20.64,68.181c-13.763,15.77-33.683,23.653-59.759,23.653c-11.644,0-22.417-2.009-32.31-6.03v-46.846
		c8.553,6.494,18.142,9.744,28.755,9.744c22.78,0,34.167-16.904,34.167-50.712V250.952h49.786V384.684z"/>
	<path fill="#3B789A" stroke="#282828" stroke-width="0.25" stroke-miterlimit="10" d="M1707.967,464.148v-49.471
		c8.967,7.523,18.709,13.166,29.222,16.928c10.513,3.766,21.126,5.644,31.846,5.644c6.285,0,11.776-0.565,16.468-1.702
		c4.69-1.132,8.602-2.703,11.75-4.712c3.143-2.012,5.485-4.381,7.032-7.112c1.547-2.732,2.321-5.693,2.321-8.891
		c0-4.33-1.238-8.195-3.709-11.595c-2.476-3.401-5.854-6.545-10.127-9.432c-4.28-2.885-9.355-5.667-15.229-8.349
		c-5.875-2.679-12.214-5.411-19.019-8.193c-17.314-7.211-30.224-16.026-38.729-26.438c-8.5-10.41-12.754-22.982-12.754-37.723
		c0-11.542,2.321-21.463,6.959-29.762c4.637-8.295,10.95-15.124,18.938-20.484c7.987-5.358,17.236-9.301,27.753-11.827
		c10.513-2.524,21.643-3.789,33.394-3.789c11.541,0,21.771,0.698,30.687,2.087c8.912,1.392,17.135,3.533,24.658,6.417v46.226
		c-3.708-2.576-7.753-4.844-12.134-6.802c-4.381-1.957-8.891-3.582-13.527-4.871c-4.636-1.289-9.252-2.242-13.835-2.86
		c-4.59-0.618-8.944-0.927-13.064-0.927c-5.671,0-10.825,0.54-15.463,1.622c-4.638,1.084-8.554,2.604-11.751,4.562
		c-3.196,1.96-5.666,4.305-7.422,7.034c-1.749,2.732-2.625,5.798-2.625,9.199c0,3.71,0.981,7.034,2.934,9.972
		c1.959,2.938,4.745,5.721,8.352,8.349c3.608,2.628,7.989,5.205,13.144,7.73c5.155,2.527,10.977,5.129,17.47,7.808
		c8.864,3.709,16.825,7.652,23.885,11.826s13.116,8.892,18.17,14.147c5.048,5.257,8.91,11.263,11.588,18.01
		c2.685,6.753,4.024,14.609,4.024,23.58c0,12.365-2.349,22.753-7.033,31.151c-4.689,8.398-11.056,15.203-19.098,20.405
		c-8.036,5.208-17.39,8.942-28.058,11.212c-10.666,2.264-21.931,3.398-33.781,3.398c-12.161,0-23.73-1.03-34.711-3.09
		C1725.514,471.366,1716.01,468.272,1707.967,464.148z"/>
</g>
<circle fill="#3B789A" stroke="#282828" stroke-width="0.25" stroke-miterlimit="10" cx="1523.594" cy="445.194" r="36.127"/>
<g>
	<path fill="#405A68" stroke="#282828" stroke-width="0.25" stroke-miterlimit="10" d="M630.231,441.927
		c2.88,2.286,6.008,4.32,9.386,6.108c3.375,1.788,6.853,3.329,10.429,4.618c3.576,1.292,7.174,2.261,10.801,2.905
		c3.625,0.647,7.077,0.969,10.354,0.969c22.645,0,33.968-8.492,33.968-25.477c0-3.873-0.796-7.226-2.384-10.056
		c-1.59-2.831-3.874-5.412-6.853-7.747c-2.979-2.333-6.555-4.493-10.727-6.481c-4.172-1.985-8.89-4.071-14.154-6.257
		c-7.053-2.88-13.11-5.811-18.176-8.79s-9.237-6.231-12.515-9.758c-3.277-3.524-5.712-7.398-7.3-11.621
		c-1.59-4.22-2.384-9.014-2.384-14.377c0-6.753,1.464-12.761,4.395-18.027c2.928-5.263,6.876-9.733,11.844-13.409
		c4.965-3.673,10.701-6.48,17.208-8.417c6.504-1.937,13.334-2.905,20.485-2.905c13.208,0,24.731,2.483,34.564,7.449v20.113
		c-11.423-7.349-23.739-11.024-36.948-11.024c-4.767,0-9.113,0.596-13.036,1.788c-3.925,1.192-7.277,2.882-10.057,5.065
		c-2.782,2.186-4.942,4.793-6.48,7.822c-1.541,3.031-2.31,6.383-2.31,10.057c0,3.775,0.596,7.076,1.788,9.906
		c1.192,2.831,3.054,5.39,5.587,7.673c2.533,2.286,5.81,4.47,9.833,6.556s8.914,4.32,14.675,6.704
		c7.349,2.979,13.707,5.937,19.07,8.864c5.363,2.931,9.782,6.108,13.26,9.535c3.475,3.427,6.057,7.251,7.747,11.472
		c1.688,4.223,2.533,9.113,2.533,14.675c0,6.854-1.416,12.962-4.246,18.325s-6.755,9.884-11.77,13.558
		c-5.017,3.675-10.901,6.457-17.655,8.343c-6.755,1.886-14.104,2.83-22.049,2.83c-15.396,0-28.358-3.229-38.885-9.684V441.927z"/>
	<path fill="#405A68" stroke="#282828" stroke-width="0.25" stroke-miterlimit="10" d="M766.64,444.758v94.753h-19.07V316.781h19.07
		v29.201h0.596c5.661-10.626,13.234-18.746,22.72-24.358c9.484-5.61,20.187-8.417,32.106-8.417c9.732,0,18.448,1.764,26.146,5.289
		c7.696,3.527,14.202,8.518,19.517,14.973c5.312,6.457,9.386,14.302,12.216,23.539c2.831,9.237,4.246,19.617,4.246,31.138
		c0,12.614-1.59,24.111-4.767,34.489c-3.18,10.38-7.747,19.293-13.707,26.742s-13.185,13.236-21.677,17.356
		c-8.492,4.12-18.052,6.183-28.679,6.183c-21.453,0-37.495-9.386-48.121-28.157H766.64z M766.64,405.873
		c0,6.953,1.167,13.483,3.501,19.592c2.333,6.107,5.587,11.472,9.759,16.09c4.171,4.618,9.211,8.269,15.122,10.95
		c5.908,2.682,12.44,4.022,19.591,4.022c7.647,0,14.549-1.613,20.708-4.842c6.157-3.227,11.397-7.821,15.718-13.781
		c4.32-5.959,7.647-13.159,9.982-21.603c2.333-8.44,3.501-17.878,3.501-28.307c0-8.938-1.094-17.007-3.278-24.21
		c-2.186-7.199-5.289-13.333-9.311-18.399c-4.023-5.065-8.89-8.939-14.601-11.621c-5.712-2.682-12.093-4.022-19.144-4.022
		c-7.947,0-15.099,1.466-21.454,4.395c-6.357,2.931-11.77,6.927-16.239,11.993c-4.469,5.065-7.896,11.002-10.28,17.804
		c-2.384,6.805-3.576,14.03-3.576,21.677V405.873z"/>
	<path fill="#405A68" stroke="#282828" stroke-width="0.25" stroke-miterlimit="10" d="M916.457,396.487
		c0.098,9.337,1.341,17.729,3.725,25.178s5.811,13.758,10.28,18.921c4.47,5.166,9.908,9.114,16.314,11.845
		c6.406,2.732,13.632,4.097,21.677,4.097c17.182,0,33.421-6.008,48.718-18.027v18.772c-14.602,10.429-32.281,15.643-53.039,15.643
		c-10.231,0-19.517-1.787-27.86-5.363c-8.343-3.575-15.445-8.764-21.305-15.568c-5.861-6.802-10.38-15.171-13.557-25.104
		c-3.18-9.931-4.768-21.254-4.768-33.968c0-11.421,1.736-21.999,5.214-31.734c3.476-9.732,8.292-18.15,14.451-25.252
		c6.157-7.1,13.458-12.664,21.9-16.686c8.441-4.022,17.678-6.034,27.711-6.034c9.833,0,18.523,1.713,26.071,5.14
		c7.547,3.427,13.879,8.32,18.996,14.675c5.115,6.357,9.014,14.104,11.695,23.241c2.682,9.139,4.021,19.368,4.021,30.69v9.535
		H916.457z M1007.039,379.801c-0.299-15.89-4.074-28.206-11.324-36.947c-7.25-8.739-17.333-13.11-30.243-13.11
		c-6.458,0-12.44,1.143-17.953,3.426c-5.512,2.286-10.354,5.587-14.526,9.908c-4.171,4.32-7.624,9.586-10.354,15.792
		c-2.733,6.209-4.644,13.185-5.736,20.932H1007.039z"/>
	<path fill="#405A68" stroke="#282828" stroke-width="0.25" stroke-miterlimit="10" d="M1150.3,462.486
		c-11.322,6.854-25.028,10.378-41.119,10.578c-10.927,0.098-20.76-1.788-29.498-5.661c-8.741-3.874-16.19-9.261-22.348-16.165
		c-6.159-6.902-10.876-15.047-14.153-24.433c-3.277-9.387-4.917-19.592-4.917-30.616c0-11.421,1.737-22.173,5.215-32.255
		c3.476-10.079,8.541-18.87,15.196-26.37c6.653-7.498,14.798-13.432,24.434-17.803c9.632-4.37,20.657-6.555,33.074-6.555
		c12.612,0,24.135,2.435,34.563,7.3v20.262c-11.125-7.349-23.144-11.024-36.054-11.024c-9.039,0-17.084,1.713-24.136,5.14
		c-7.053,3.427-12.986,8.096-17.803,14.004c-4.819,5.911-8.492,12.812-11.025,20.708c-2.532,7.896-3.799,16.265-3.799,25.104
		c0,8.146,1.066,15.941,3.203,23.391c2.135,7.449,5.412,14.03,9.833,19.74c4.418,5.713,10.005,10.257,16.761,13.632
		c6.753,3.378,14.698,5.065,23.837,5.065c14.303,0,27.213-4.27,38.735-12.813V462.486z"/>
	<path fill="#405A68" stroke="#282828" stroke-width="0.25" stroke-miterlimit="10" d="M1237.247,467.552
		c-6.556,3.278-13.707,4.917-21.454,4.917c-24.633,0-36.947-14.202-36.947-42.609v-96.392h-26.817v-16.687h26.817v-38.438
		l19.069-6.257v44.695h39.332v16.687h-39.332v93.412c0,10.331,1.688,17.78,5.065,22.348c3.376,4.569,9.088,6.853,17.134,6.853
		c5.959,0,11.669-1.787,17.133-5.363V467.552z"/>
	<path fill="#405A68" stroke="#282828" stroke-width="0.25" stroke-miterlimit="10" d="M1313.466,472.915
		c-11.322,0-21.479-1.888-30.467-5.661c-8.99-3.773-16.663-9.111-23.018-16.016c-6.357-6.902-11.226-15.171-14.601-24.806
		c-3.378-9.633-5.065-20.311-5.065-32.031c0-12.712,1.788-24.084,5.363-34.116c3.575-10.031,8.664-18.549,15.271-25.551
		c6.604-7.002,14.575-12.34,23.912-16.016c9.335-3.673,19.764-5.512,31.286-5.512c11.024,0,20.955,1.813,29.797,5.438
		c8.839,3.627,16.337,8.865,22.496,15.718c6.157,6.854,10.876,15.196,14.153,25.029s4.917,21.007,4.917,33.521
		c0,11.918-1.714,22.771-5.141,32.553c-3.426,9.783-8.319,18.201-14.675,25.252c-6.357,7.054-14.104,12.515-23.241,16.389
		C1335.315,470.979,1324.986,472.915,1313.466,472.915z M1314.956,329.743c-8.344,0-15.893,1.441-22.646,4.32
		c-6.756,2.882-12.54,7.077-17.356,12.589c-4.819,5.513-8.518,12.268-11.1,20.262c-2.584,7.996-3.873,17.059-3.873,27.189
		c0,9.535,1.289,18.127,3.873,25.774c2.582,7.649,6.231,14.204,10.95,19.665c4.717,5.464,10.452,9.661,17.208,12.59
		c6.753,2.931,14.302,4.395,22.646,4.395c8.54,0,16.09-1.415,22.645-4.246c6.556-2.831,12.117-6.951,16.687-12.365
		c4.567-5.412,8.02-12.042,10.354-19.89c2.332-7.845,3.501-16.783,3.501-26.816c0-20.56-4.569-36.278-13.706-47.153
		C1344.999,335.181,1331.939,329.743,1314.956,329.743z"/>
	<path fill="#405A68" stroke="#282828" stroke-width="0.25" stroke-miterlimit="10" d="M1486.376,336.298
		c-4.47-3.278-10.231-4.917-17.282-4.917c-5.065,0-9.535,0.968-13.408,2.905c-3.874,1.937-7.277,4.544-10.205,7.821
		c-2.932,3.278-5.415,7.077-7.449,11.397c-2.037,4.32-3.676,8.815-4.917,13.482c-1.243,4.67-2.137,9.387-2.682,14.153
		c-0.547,4.768-0.819,9.288-0.819,13.558v74.641h-18.921V316.781h18.921v32.627h0.596c1.788-5.561,4.046-10.552,6.779-14.973
		c2.73-4.418,5.885-8.143,9.46-11.174c3.576-3.028,7.473-5.338,11.695-6.928c4.221-1.587,8.664-2.384,13.334-2.384
		c3.077,0,5.834,0.2,8.269,0.596c2.433,0.398,4.642,0.994,6.63,1.788V336.298z"/>
</g>
</svg>
