<?xml version="1.0" encoding="utf-8"?>
<!-- Generator: Adobe Illustrator 16.0.0, SVG Export Plug-In . SVG Version: 6.00 Build 0)  -->
<!DOCTYPE svg PUBLIC "-//W3C//DTD SVG 1.0//EN" "http://www.w3.org/TR/2001/REC-SVG-20010904/DTD/svg10.dtd">
<svg version="1.0" id="Layer_1" xmlns="http://www.w3.org/2000/svg" xmlns:xlink="http://www.w3.org/1999/xlink" x="0px" y="0px"
	 width="394.016px" height="201.26px" viewBox="0 0 394.016 201.26" enable-background="new 0 0 394.016 201.26"
	 xml:space="preserve">
<g>
	<path fill="#00AEEF" d="M327.017,67.735c-0.424,14.577-8.988,27.109-21.311,33.208v17.657c3.143,4.849,5.352,10.354,6.377,16.271
		l4.125-4.129c5.701,5.15,12.295,7.556,18.748,7.556c9.133,0,12.43-2.886,12.43-5.976c0-1.785-1.58-4.532-8.859-6.317
		c-1.236-0.274-8.994-2.198-10.301-2.542c-9.889-2.539-18.748-6.248-18.748-15.656c0-8.859,8.447-16.138,24.381-16.138
		c9.957,0,18.195,3.364,24.238,9.545l-8.172,8.104c-3.842-4.394-9.75-7.278-16.205-7.278c-9.064,0-12.361,2.885-12.361,5.493
		c0,2.335,2.543,3.778,11.537,6.043c1.234,0.344,7.693,1.993,8.996,2.265c11.605,2.816,17.375,8.859,17.375,16.277
		c0,8.582-7.557,16.549-24.723,16.549c-7.854,0-15.484-1.957-21.805-6.131c-0.043,16.024-8.68,30.021-21.542,37.644
		c8.101,4.102,17.249,6.427,26.952,6.427c33.002,0,59.764-26.758,59.764-59.764C377.913,96.848,355.815,72.021,327.017,67.735z"/>
	<circle fill="#8DC63F" cx="289.197" cy="66.519" r="38.525"/>
	<path fill="#00AEEF" d="M291.447,104.799c0.884,0.531,1.745,1.098,2.585,1.691v-1.958
		C293.179,104.65,292.317,104.737,291.447,104.799z"/>
	<g>
		<path fill="#EF4136" d="M259.328,137.361c-0.281-1.582-0.514-3.183-0.666-4.807c-0.789,0.539-1.611,1.035-2.457,1.49
			C257.422,134.969,258.482,136.084,259.328,137.361z"/>
	</g>
	<g>
		<path fill="#EF4136" d="M261.51,145.907c-0.564,6.942-6.369,12.405-13.455,12.405c-7.463,0-13.512-6.05-13.512-13.512
			c0-3.042,1.02-5.842,2.715-8.101c-4.039-0.87-7.748-2.624-10.918-5.052c-0.868,3.445-1.337,7.051-1.337,10.77
			c0,24.227,19.642,43.868,43.871,43.868c8.153,0,15.78-2.233,22.323-6.107C277.305,173.145,266.535,160.85,261.51,145.907z"/>
	</g>
	<g>
		<path fill="#345451" d="M308.106,138.847l3.977-3.976c-1.025-5.916-3.234-11.422-6.377-16.271v8.366
			c0,16.068-10.781,21.699-22.452,21.699c-7.762,0-14.01-3.16-18.955-9.203l7.896-7.895c2.954,4.188,7.351,6.658,11.126,6.658
			c5.355,0,10.712-2.4,10.712-10.916v-20.82c-0.84-0.594-1.701-1.16-2.585-1.691c-6.596-3.967-14.316-6.252-22.573-6.252
			c-0.144,0-0.281,0.01-0.425,0.011c0.107,0.239,0.211,0.481,0.309,0.726c1.301,3.209,2.026,6.714,2.026,10.389
			c0,9.516-4.807,17.906-12.122,22.883c0.152,1.624,0.385,3.225,0.666,4.807c1.41,2.135,2.235,4.689,2.235,7.439
			c0,0.375-0.026,0.74-0.054,1.106c5.025,14.942,15.795,27.237,29.688,34.271c12.862-7.623,21.499-21.619,21.542-37.644
			C311.101,141.453,309.548,140.23,308.106,138.847z"/>
	</g>
	<g>
		<path fill="#F9ED32" d="M265.422,98.695c0.217-0.406,0.443-0.807,0.672-1.205c-4.6-3.379-8.418-7.756-11.131-12.816
			c-0.096-0.046-0.191-0.087-0.29-0.132c-3.847,4.083-9.629,6.585-17.321,6.585c-4.758,0-8.771-0.937-12.05-2.597
			c-6.011,5.073-9.834,12.66-9.834,21.141c0,8.963,4.265,16.924,10.872,21.977C230.867,113.707,246.451,100.173,265.422,98.695z"/>
	</g>
	<g>
		<path fill="#EC8037" d="M248.055,131.291c3.065,0,5.882,1.033,8.15,2.754c0.846-0.455,1.668-0.951,2.457-1.49
			c-0.178-1.882-0.278-3.785-0.278-5.713c0-10.18,2.55-19.758,7.038-28.146c-18.971,1.478-34.555,15.012-39.082,32.953
			c3.17,2.428,6.879,4.182,10.918,5.052C239.725,133.422,243.636,131.291,248.055,131.291z"/>
	</g>
	<g>
		<path fill="#B8C43C" d="M262.992,90.44h-0.373v-0.384c-2.216-2.201-4.801-4.029-7.656-5.382c2.713,5.06,6.531,9.437,11.131,12.816
			c0.316-0.563,0.629-1.124,0.964-1.673C265.922,93.86,264.554,92.055,262.992,90.44z"/>
	</g>
	<g>
		<path fill="#3D846C" d="M268.758,99.283c-0.098-0.244-0.201-0.486-0.309-0.726c-0.263,0.002-0.525,0.013-0.793,0.021
			c-0.75,0.021-1.494,0.06-2.234,0.117c-4.488,8.389-7.038,17.967-7.038,28.146c0,1.928,0.101,3.831,0.278,5.713
			c7.315-4.977,12.122-13.367,12.122-22.883C270.784,105.997,270.059,102.492,268.758,99.283z"/>
	</g>
	<g>
		<path fill="#EC8037" d="M256.205,134.045c-3.893,2.096-8.348,3.285-13.078,3.285c-2.016,0-3.977-0.219-5.869-0.63
			c-1.695,2.259-2.715,5.059-2.715,8.101c0,7.462,6.049,13.512,13.512,13.512c7.086,0,12.891-5.463,13.455-12.405
			c-0.933-2.765-1.664-5.618-2.182-8.546C258.482,136.084,257.422,134.969,256.205,134.045z"/>
	</g>
	<g>
		<path fill="#F9ED32" d="M261.563,144.801c0-2.75-0.825-5.305-2.235-7.439c0.518,2.928,1.249,5.781,2.182,8.546
			C261.537,145.541,261.563,145.176,261.563,144.801z"/>
	</g>
	<g>
		<path fill="#F8971D" d="M256.205,134.045c-2.269-1.721-5.085-2.754-8.15-2.754c-4.419,0-8.33,2.131-10.797,5.409
			c1.893,0.411,3.854,0.63,5.869,0.63C247.857,137.33,252.313,136.141,256.205,134.045z"/>
	</g>
	<g>
		<path fill="none" d="M246.543,66.492c0.15,0.561,0.236,1.148,0.236,1.755c0,3.786-3.068,6.855-6.854,6.855
			s-6.854-3.07-6.854-6.855c0-3.785,3.068-6.854,6.854-6.854c0.382,0,0.755,0.039,1.118,0.099c-0.066-0.361-0.105-0.731-0.105-1.112
			c0-1.223,0.361-2.358,0.979-3.314c-1.324-0.44-2.832-0.687-4.564-0.687c-8.102,0-11.537,4.945-11.537,12.43
			c0,7.417,3.57,12.499,11.537,12.499c8.036,0,11.537-5.082,11.537-12.499c0-0.877-0.054-1.717-0.152-2.523
			c-0.528,0.148-1.084,0.233-1.66,0.233C246.898,66.519,246.72,66.508,246.543,66.492z"/>
		<path fill="#BE1E2D" d="M239.925,75.103c3.786,0,6.854-3.07,6.854-6.855c0-0.607-0.086-1.194-0.236-1.755
			c-2.767-0.239-5.007-2.312-5.5-5c-0.363-0.06-0.736-0.099-1.118-0.099c-3.786,0-6.854,3.069-6.854,6.854
			C233.07,72.033,236.139,75.103,239.925,75.103z"/>
		<path fill="#BE1E2D" d="M253.41,51.773c-3.803-3.314-9.168-5.283-16.125-5.283c-15.316,0-22.938,9.751-22.938,22.318
			c0,8.679,3.639,16.014,10.954,19.723c3.278,1.66,7.292,2.597,12.05,2.597c7.692,0,13.475-2.503,17.321-6.585
			c0.049-0.051,0.094-0.105,0.143-0.156c3.68-3.997,5.543-9.465,5.543-15.578C260.358,61.864,258.049,55.816,253.41,51.773z
			 M237.352,56.379c1.732,0,3.24,0.247,4.564,0.687c1.09-1.697,2.992-2.825,5.16-2.825c1.902,0,3.598,0.863,4.723,2.218
			c0.886,1.063,1.419,2.43,1.419,3.922c0,2.139-1.099,4.021-2.759,5.12c-0.521,0.347-1.104,0.612-1.723,0.786
			c0.099,0.806,0.152,1.646,0.152,2.523c0,7.417-3.501,12.499-11.537,12.499c-7.967,0-11.537-5.082-11.537-12.499
			C225.814,61.324,229.25,56.379,237.352,56.379z"/>
	</g>
	<path fill="#BE1E2D" d="M262.992,90.44c-0.125-0.128-0.246-0.259-0.373-0.384v0.384H262.992z"/>
	<g>
		<path fill="#FFFFFF" d="M294.032,104.532v1.958v20.82c0,8.516-5.356,10.916-10.712,10.916c-3.775,0-8.172-2.471-11.126-6.658
			l-7.896,7.895c4.945,6.043,11.193,9.203,18.955,9.203c11.671,0,22.452-5.631,22.452-21.699v-8.366v-17.657v-8.588h-11.674V104.532
			z"/>
		<path fill="#FFFFFF" d="M341.892,115.84c-1.303-0.271-7.762-1.921-8.996-2.265c-8.994-2.265-11.537-3.708-11.537-6.043
			c0-2.608,3.297-5.493,12.361-5.493c6.455,0,12.363,2.885,16.205,7.278l8.172-8.104c-6.043-6.181-14.281-9.545-24.238-9.545
			c-15.934,0-24.381,7.278-24.381,16.138c0,9.408,8.859,13.117,18.748,15.656c1.307,0.344,9.064,2.268,10.301,2.542
			c7.279,1.785,8.859,4.532,8.859,6.317c0,3.09-3.297,5.976-12.43,5.976c-6.453,0-13.047-2.405-18.748-7.556l-4.125,4.129
			l-3.977,3.976c1.441,1.384,2.994,2.606,4.633,3.688c6.32,4.174,13.951,6.131,21.805,6.131c17.166,0,24.723-7.967,24.723-16.549
			C359.267,124.699,353.497,118.656,341.892,115.84z"/>
		<path fill="#FFFFFF" d="M247.076,54.24c-2.168,0-4.07,1.128-5.16,2.825c-0.617,0.956-0.979,2.092-0.979,3.314
			c0,0.381,0.039,0.751,0.105,1.112c0.493,2.688,2.733,4.761,5.5,5c0.177,0.016,0.355,0.027,0.533,0.027
			c0.576,0,1.132-0.085,1.66-0.233c0.619-0.174,1.201-0.438,1.723-0.786c1.66-1.099,2.759-2.981,2.759-5.12
			c0-1.492-0.533-2.858-1.419-3.922C250.674,55.104,248.979,54.24,247.076,54.24z"/>
	</g>
</g>
<g>
	<path fill="#BE1E2D" d="M35.203,92.428c-7.935,0-15.111-2.69-21.528-8.211l7.383-7.452c3.657,3.864,8.97,6.072,13.938,6.072
		c6.624,0,8.556-2.07,8.556-3.657c0-1.38-0.621-2.483-5.658-3.726c-0.966-0.207-6.831-1.794-7.797-2.001
		c-7.452-1.863-15.111-4.899-15.111-12.834c0-7.521,7.176-13.041,19.527-13.041c8.142,0,14.559,2.415,19.527,7.245l-7.176,7.106
		c-3.105-3.036-7.59-4.898-12.282-4.898c-6.486,0-8.004,2.208-8.004,3.449c0,1.794,2.346,2.484,7.659,3.795
		c0.897,0.207,6.003,1.588,6.969,1.863c9.177,2.277,13.938,6.003,13.938,12.559C55.144,86.08,48.658,92.428,35.203,92.428z"/>
	<path fill="#BE1E2D" d="M79.158,92.428c-4.968,0-9.591-1.587-12.075-4.071h-0.138v31.871H55.422V48.199h11.523v3.174h0.138
		c2.622-2.347,7.038-3.795,12.075-3.795c14.49,0,21.667,9.453,21.667,22.355C100.825,82.837,93.787,92.428,79.158,92.428z
		 M77.847,57.444c-8.211,0-11.523,4.899-11.523,12.559c0,7.797,3.243,12.42,11.454,12.42s11.523-4.692,11.523-12.42
		C89.301,62.344,86.059,57.444,77.847,57.444z"/>
	<path fill="#BE1E2D" d="M146.78,74.419h-34.707l1.035,1.104c1.656,4.416,5.658,7.314,11.592,7.314c4.347,0,7.866-1.311,11.316-4.14
		l6.969,7.038c-5.175,4.484-11.04,6.624-18.285,6.624c-16.077,0-23.874-9.729-23.874-22.08c0-13.041,8.487-22.771,23.253-22.771
		c15.456,0,22.977,10.074,22.977,22.771C147.056,71.383,146.987,73.039,146.78,74.419z M135.809,65.173l-1.104-1.104
		c-1.587-4.555-5.106-7.107-10.626-7.107c-5.658,0-9.039,2.691-10.833,7.107l-1.035,1.104H135.809z"/>
	<path fill="#BE1E2D" d="M188.594,85.321c-4.761,4.484-11.108,7.038-18.285,7.038c-15.731,0-23.252-9.799-23.252-22.149
		c0-12.559,8.417-22.701,23.391-22.701c7.866,0,13.662,2.553,17.939,6.831l-7.59,7.59c-2.897-3.036-6.003-4.485-10.281-4.485
		c-7.865,0-11.937,5.521-11.937,12.835c0,6.969,3.45,12.213,11.799,12.213c4.278,0,7.452-1.519,10.695-4.692L188.594,85.321z"/>
	<path fill="#BE1E2D" d="M219.336,85.804c-4.486,4.416-8.764,6.556-14.215,6.556c-10.006,0-14.836-5.176-14.836-15.318V49.479
		l0.553-1.035h-6.348v-9.245h6.348l-0.553-1.035V21.989l11.523-6.142v22.316l-0.621,1.035h13.455v9.245h-13.455l0.621,1.035v27.562
		c0,3.588,1.795,5.451,4.348,5.451c2.346,0,4.209-1.035,6.416-3.45L219.336,85.804z"/>
	<path fill="#BE1E2D" d="M289.833,58.204h-3.449c-8.143,0-11.869,3.795-11.869,11.937v21.528h-11.523v-43.47h11.523v5.796h0.139
		c2.484-3.934,6.762-6.279,12.627-6.279h2.553V58.204z"/>
</g>
</svg>
