<?xml version="1.0" encoding="UTF-8" standalone="no"?>
<!-- Generator: Adobe Illustrator 16.0.3, SVG Export Plug-In . SVG Version: 6.00 Build 0)  -->

<svg
   xmlns:dc="http://purl.org/dc/elements/1.1/"
   xmlns:cc="http://creativecommons.org/ns#"
   xmlns:rdf="http://www.w3.org/1999/02/22-rdf-syntax-ns#"
   xmlns:svg="http://www.w3.org/2000/svg"
   xmlns="http://www.w3.org/2000/svg"
   xmlns:sodipodi="http://sodipodi.sourceforge.net/DTD/sodipodi-0.dtd"
   xmlns:inkscape="http://www.inkscape.org/namespaces/inkscape"
   version="1.0"
   id="Layer_1"
   x="0px"
   y="0px"
   width="409px"
   height="205px"
   viewBox="0 0 409 205"
   enable-background="new 0 0 409 205"
   xml:space="preserve"
   sodipodi:docname="logo-babylonjs.svg"
   inkscape:version="0.92.1 r15371"><metadata
     id="metadata3789"><rdf:RDF><cc:Work
         rdf:about=""><dc:format>image/svg+xml</dc:format><dc:type
           rdf:resource="http://purl.org/dc/dcmitype/StillImage" /></cc:Work></rdf:RDF></metadata><defs
     id="defs3787"><inkscape:perspective
       sodipodi:type="inkscape:persp3d"
       inkscape:vp_x="0 : 102.5 : 1"
       inkscape:vp_y="0 : 1000 : 0"
       inkscape:vp_z="409 : 102.5 : 1"
       inkscape:persp3d-origin="204.5 : 68.333333 : 1"
       id="perspective4736" /><clipPath
       clipPathUnits="userSpaceOnUse"
       id="clipPath4671"><g
         inkscape:label="Clip"
         id="use4673"><flowRoot
           transform="matrix(0.85749881,0,0,1.0072354,-2.1266666,-84.539648)"
           style="font-style:normal;font-variant:normal;font-weight:bold;font-stretch:normal;font-size:85.33333588px;line-height:1.25;font-family:sans-serif;-inkscape-font-specification:'sans-serif Bold';letter-spacing:-3.98999977px;word-spacing:0px;fill:#001e2d;fill-opacity:1;stroke:none"
           id="flowRoot4686"
           xml:space="preserve"><flowRegion
             style="font-style:normal;font-variant:normal;font-weight:bold;font-stretch:normal;font-size:85.33333588px;line-height:1.25;font-family:sans-serif;-inkscape-font-specification:'sans-serif Bold';letter-spacing:-3.98999977px;fill:#001e2d;fill-opacity:1"
             id="flowRegion4682"><rect
               style="font-style:normal;font-variant:normal;font-weight:bold;font-stretch:normal;font-size:85.33333588px;line-height:1.25;font-family:sans-serif;-inkscape-font-specification:'sans-serif Bold';letter-spacing:-3.98999977px;fill:#001e2d;fill-opacity:1"
               y="101.53908"
               x="17.243486"
               height="149.37897"
               width="373.15683"
               id="rect4680" /></flowRegion><flowPara
             style="font-style:normal;font-variant:normal;font-weight:bold;font-stretch:normal;font-size:85.33333588px;line-height:1.25;font-family:sans-serif;-inkscape-font-specification:'sans-serif Bold';letter-spacing:-3.98999977px;fill:#001e2d;fill-opacity:1"
             id="flowPara4684">Spector</flowPara></flowRoot></g></clipPath></defs><sodipodi:namedview
     pagecolor="#ffffff"
     bordercolor="#666666"
     borderopacity="1"
     objecttolerance="10"
     gridtolerance="10"
     guidetolerance="10"
     inkscape:pageopacity="0"
     inkscape:pageshadow="2"
     inkscape:window-width="2250"
     inkscape:window-height="1421"
     id="namedview3785"
     showgrid="true"
     inkscape:zoom="0.64517115"
     inkscape:cx="-492.13477"
     inkscape:cy="93.499586"
     inkscape:window-x="-11"
     inkscape:window-y="-11"
     inkscape:window-maximized="1"
     inkscape:current-layer="Layer_1"><inkscape:grid
       type="xygrid"
       id="grid4742" /></sodipodi:namedview><path
     style="fill:none"
     inkscape:connector-curvature="0"
     id="path3680"
     d="m 40.307,59.785 c -8.569,0 -11.953,5.04 -11.953,13.105 0,7.993 3.456,12.961 12.025,12.961 8.569,0 11.953,-4.896 11.953,-12.961 0,-8.065 -3.457,-13.105 -12.025,-13.105 z" /><path
     style="fill:none"
     inkscape:connector-curvature="0"
     id="path3682"
     d="m 96.106,75.77 c -1.944,0 -3.816,0 -6.265,0.144 -2.376,0.072 -4.896,0.288 -7.128,0.792 -4.537,0.936 -6.409,2.52 -6.409,4.824 0,3.313 4.32,4.752 9.001,4.752 3.672,0 12.385,-0.432 12.385,-4.968 v -4.32 l 0.019,-1.223 C 97.276,75.699 96.394,75.77 96.106,75.77 Z" /><path
     style="fill:none"
     inkscape:connector-curvature="0"
     id="path3684"
     d="m 268.777,89.316 c 0.101,0.046 0.203,0.09 0.303,0.137 -0.053,-0.1 -0.102,-0.202 -0.154,-0.302 -0.05,0.055 -0.098,0.111 -0.149,0.165 z" /><path
     style="fill:none"
     inkscape:connector-curvature="0"
     id="path3686"
     d="m 260.253,70.388 c 0.156,0.588 0.247,1.204 0.247,1.841 0,3.969 -3.218,7.188 -7.188,7.188 -3.97,0 -7.188,-3.218 -7.188,-7.188 0,-3.97 3.218,-7.188 7.188,-7.188 0.4,0 0.791,0.041 1.174,0.104 -0.07,-0.379 -0.111,-0.768 -0.111,-1.167 0,-1.281 0.379,-2.472 1.024,-3.475 -1.386,-0.461 -2.968,-0.719 -4.784,-0.719 -8.497,0 -12.098,5.184 -12.098,13.033 0,7.777 3.745,13.105 12.098,13.105 8.425,0 12.097,-5.329 12.097,-13.105 0,-0.919 -0.056,-1.801 -0.16,-2.646 -0.554,0.155 -1.136,0.245 -1.739,0.245 -0.189,0.001 -0.375,-0.012 -0.56,-0.028 z" /><path
     style="fill:none"
     inkscape:connector-curvature="0"
     id="path3688"
     d="m 137.434,59.785 c -8.569,0 -11.953,5.04 -11.953,13.105 0,7.993 3.456,12.961 12.025,12.961 8.569,0 11.953,-4.896 11.953,-12.961 -0.001,-8.065 -3.457,-13.105 -12.025,-13.105 z" /><path
     style="fill:#00aeef"
     inkscape:connector-curvature="0"
     id="path3690"
     d="m 344.635,71.691 c -0.446,15.286 -9.424,28.425 -22.345,34.821 v 18.515 c 3.294,5.084 5.609,10.857 6.686,17.059 l 4.326,-4.326 c 5.977,5.4 12.89,7.92 19.658,7.92 9.577,0 13.033,-3.023 13.033,-6.264 0,-1.873 -1.656,-4.753 -9.289,-6.625 -1.296,-0.288 -9.433,-2.305 -10.801,-2.664 -10.369,-2.664 -19.658,-6.553 -19.658,-16.418 0,-9.289 8.857,-16.921 25.563,-16.921 10.441,0 19.082,3.528 25.418,10.009 l -8.568,8.496 c -4.032,-4.607 -10.225,-7.632 -16.993,-7.632 -9.505,0 -12.962,3.025 -12.962,5.761 0,2.447 2.665,3.96 12.098,6.336 1.296,0.36 8.064,2.088 9.433,2.377 12.169,2.951 18.218,9.288 18.218,17.064 0,9.001 -7.921,17.354 -25.923,17.354 -8.234,0 -16.236,-2.053 -22.862,-6.428 -0.045,16.802 -9.102,31.479 -22.59,39.471 8.493,4.3 18.089,6.738 28.26,6.738 34.609,0 62.666,-28.057 62.666,-62.667 -0.002,-31.449 -23.17,-57.482 -53.368,-61.976 z" /><path
     style="fill:#00aeef"
     inkscape:connector-curvature="0"
     id="path3692"
     d="m 307.338,110.556 c 0.927,0.558 1.828,1.152 2.711,1.772 v -2.053 c -0.895,0.124 -1.799,0.217 -2.711,0.281 z" /><g
     id="g3696"><path
       style="fill:#ef4136"
       inkscape:connector-curvature="0"
       id="path3694"
       d="m 273.656,144.699 c -0.295,-1.659 -0.535,-3.338 -0.696,-5.039 -0.829,0.563 -1.688,1.085 -2.576,1.563 1.275,0.967 2.387,2.138 3.272,3.476 z" /></g><g
     id="g3700"><path
       style="fill:#ef4136"
       inkscape:connector-curvature="0"
       id="path3698"
       d="m 275.944,153.659 c -0.591,7.28 -6.675,13.009 -14.108,13.009 -7.824,0 -14.167,-6.344 -14.167,-14.167 0,-3.19 1.067,-6.126 2.848,-8.494 -4.234,-0.915 -8.124,-2.754 -11.449,-5.298 -0.911,3.613 -1.4,7.395 -1.4,11.291 0,25.404 20.595,46 45.999,46 8.55,0 16.55,-2.341 23.409,-6.404 -14.569,-7.376 -25.859,-20.268 -31.132,-35.937 z" /></g><g
     id="g3704"><path
       d="m 300.294,59.785 c -6.624,0 -11.16,3.24 -11.16,9.217 v 22.334 c 5.881,-6.414 13.081,-11.593 21.169,-15.122 v -7.717 c 0,-5.472 -1.367,-8.712 -10.009,-8.712 z"
       id="path3702"
       inkscape:connector-curvature="0"
       style="fill:#8dc63f" /></g><g
     id="g3708"><path
       d="m 281.763,101.137 c 1.21322,-1.833908 2.80884,-3.879437 4.19884,-5.686437 L 277.499,95.499 c 1.64,1.694 3.073,3.586 4.264,5.638 z"
       id="path3706"
       inkscape:connector-curvature="0"
       style="fill:#8dc63f"
       sodipodi:nodetypes="cccc" /></g><g
     id="g4740"><g
       id="g3712"><path
         style="fill:#8dc63f"
         inkscape:connector-curvature="0"
         id="path3710"
         d="m 304.498,30.333 c -16.672,0 -30.969,10.158 -37.046,24.621 4.865,4.24 7.285,10.581 7.285,17.863 0,6.41 -1.952,12.144 -5.812,16.334 0.053,0.1 0.102,0.202 0.154,0.302 2.994,1.42 6.097,3.737 8.42,6.046 25.87655,1.409043 1.23474,2.143015 32.82563,-0.165952 18.80514,0.581241 -2.60066,0.485774 11.93037,0.165952 l 0.058,-23.135 c 7.74265,-1.504777 15.05854,-1.73078 22.32,-0.672 0.012,-0.396 0.03,-0.792 0.03,-1.191 0.002,-22.185 -17.981,-40.168 -40.165,-40.168 z"
         sodipodi:nodetypes="scsccccccccs" /></g></g><g
     id="g3718"><path
       style="fill:#345451"
       inkscape:connector-curvature="0"
       id="path3716"
       d="m 324.806,146.256 4.17,-4.17 c -1.076,-6.201 -3.392,-11.975 -6.686,-17.059 v 8.771 c 0,16.85 -11.305,22.754 -23.546,22.754 -8.137,0 -14.689,-3.313 -19.874,-9.648 l 8.28,-8.281 c 3.097,4.393 7.705,6.984 11.665,6.984 5.617,0 11.233,-2.52 11.233,-11.448 v -21.831 c -0.883,-0.62 -1.784,-1.215 -2.711,-1.772 -6.916,-4.16 -15.014,-6.556 -23.672,-6.556 -0.148,0 -0.294,0.01 -0.442,0.011 0.11,0.251 0.218,0.505 0.321,0.76 1.365,3.365 2.124,7.041 2.124,10.896 0,9.977 -5.039,18.774 -12.709,23.993 0.161,1.701 0.401,3.38 0.696,5.039 1.479,2.238 2.347,4.918 2.347,7.802 0,0.392 -0.027,0.775 -0.059,1.158 5.272,15.669 16.563,28.561 31.131,35.937 13.488,-7.991 22.545,-22.669 22.59,-39.471 -1.717,-1.135 -3.347,-2.416 -4.858,-3.869 z" /></g><g
     id="g3722"><path
       style="fill:#f9ed32"
       inkscape:connector-curvature="0"
       id="path3720"
       d="m 280.048,104.155 c 0.228,-0.426 0.467,-0.845 0.704,-1.265 -4.822,-3.542 -8.826,-8.131 -11.672,-13.438 -0.1,-0.047 -0.202,-0.091 -0.303,-0.137 -4.033,4.28 -10.097,6.904 -18.162,6.904 -4.989,0 -9.198,-0.98 -12.635,-2.722 -6.305,5.32 -10.313,13.275 -10.313,22.169 0,9.396 4.472,17.743 11.399,23.042 4.75,-18.813 21.09,-33.003 40.982,-34.553 z" /></g><g
     id="g3726"><path
       style="fill:#ec8037"
       inkscape:connector-curvature="0"
       id="path3724"
       d="m 261.836,138.334 c 3.215,0 6.17,1.084 8.548,2.889 0.888,-0.478 1.747,-0.999 2.576,-1.563 -0.188,-1.974 -0.292,-3.971 -0.292,-5.993 0,-10.672 2.675,-20.717 7.38,-29.512 -19.892,1.549 -36.231,15.739 -40.98,34.554 3.325,2.544 7.215,4.383 11.449,5.298 2.585,-3.439 6.686,-5.673 11.319,-5.673 z" /></g><g
     id="g3730"><path
       style="fill:#b8c43c"
       inkscape:connector-curvature="0"
       id="path3728"
       d="m 269.08,89.453 c 2.846,5.306 6.85,9.896 11.672,13.438 0.332,-0.587 0.66,-1.178 1.011,-1.753 -2.94721,-5.220407 -7.83147,-9.537034 -12.683,-11.685 z"
       sodipodi:nodetypes="cccc" /></g><g
     id="g3734"><path
       style="fill:#00aa6f"
       inkscape:connector-curvature="0"
       id="path3732"
       d="m 335.335,71 c -24.43579,0.240579 -42.18778,13.243799 -53.573,30.138 -0.351,0.576 -0.679,1.166 -1.011,1.753 -0.237,0.42 -0.477,0.838 -0.704,1.265 0.776,-0.061 1.558,-0.102 2.344,-0.123 0.277,-0.008 0.554,-0.019 0.832,-0.021 0.148,-0.001 0.294,-0.011 0.442,-0.011 8.658,0 16.756,2.396 23.672,6.556 0.912,-0.063 1.816,-0.156 2.711,-0.28 V 97.508 h 12.241 v 9.004 C 335.21,100.116 344.187,86.977 344.634,71.691 341.6,71.24 338.496,71 335.335,71 Z"
       sodipodi:nodetypes="ccccccsccccccc" /></g><g
     id="g3738"><path
       style="fill:#3d846c"
       inkscape:connector-curvature="0"
       id="path3736"
       d="m 283.545,104.771 c -0.104,-0.255 -0.211,-0.509 -0.321,-0.76 -0.278,0.002 -0.555,0.013 -0.832,0.021 -0.786,0.021 -1.567,0.063 -2.344,0.123 -4.705,8.795 -7.38,18.84 -7.38,29.512 0,2.022 0.104,4.02 0.292,5.993 7.67,-5.219 12.709,-14.017 12.709,-23.993 0,-3.854 -0.759,-7.531 -2.124,-10.896 z" /></g><g
     id="g3742"><path
       style="fill:#ec8037"
       inkscape:connector-curvature="0"
       id="path3740"
       d="m 270.384,141.223 c -4.084,2.195 -8.753,3.444 -13.715,3.444 -2.111,0 -4.169,-0.231 -6.152,-0.66 -1.78,2.368 -2.848,5.304 -2.848,8.494 0,7.823 6.343,14.167 14.167,14.167 7.434,0 13.518,-5.729 14.108,-13.009 -0.976,-2.898 -1.743,-5.89 -2.288,-8.96 -0.885,-1.338 -1.997,-2.509 -3.272,-3.476 z" /></g><g
     id="g3746"><path
       style="fill:#f9ed32"
       inkscape:connector-curvature="0"
       id="path3744"
       d="m 276.003,152.501 c 0,-2.884 -0.867,-5.563 -2.347,-7.802 0.545,3.07 1.313,6.062 2.288,8.96 0.032,-0.383 0.059,-0.766 0.059,-1.158 z" /></g><g
     id="g3750"><path
       style="fill:#f8971d"
       inkscape:connector-curvature="0"
       id="path3748"
       d="m 270.384,141.223 c -2.378,-1.805 -5.333,-2.889 -8.548,-2.889 -4.633,0 -8.734,2.234 -11.319,5.673 1.983,0.429 4.041,0.66 6.152,0.66 4.962,0 9.631,-1.249 13.715,-3.444 z" /></g><path
     d="m 253.313,79.417 c 3.97,0 7.188,-3.218 7.188,-7.188 0,-0.637 -0.091,-1.252 -0.247,-1.841 -2.902,-0.25 -5.251,-2.424 -5.767,-5.243 -0.383,-0.063 -0.773,-0.104 -1.174,-0.104 -3.97,0 -7.188,3.218 -7.188,7.188 0,3.97 3.218,7.188 7.188,7.188 z"
     id="path3752"
     inkscape:connector-curvature="0"
     style="fill:#be1e2d" /><path
     d="m 267.452,54.955 c -3.986,-3.475 -9.612,-5.539 -16.909,-5.539 -16.058,0 -24.051,10.225 -24.051,23.402 0,9.101 3.815,16.792 11.488,20.68 3.437,1.742 7.646,2.722 12.635,2.722 8.065,0 14.129,-2.624 18.162,-6.904 0.051,-0.054 0.099,-0.11 0.148,-0.165 3.859,-4.19 5.812,-9.924 5.812,-16.334 0,-7.281 -2.42,-13.623 -7.285,-17.862 z m -16.837,4.83 c 1.816,0 3.398,0.258 4.784,0.719 1.145,-1.78 3.139,-2.962 5.413,-2.962 1.991,0 3.771,0.905 4.952,2.326 0.927,1.115 1.485,2.548 1.485,4.112 0,2.244 -1.149,4.217 -2.89,5.369 -0.55,0.364 -1.159,0.642 -1.809,0.824 0.104,0.845 0.16,1.726 0.16,2.646 0,7.777 -3.672,13.105 -12.097,13.105 -8.353,0 -12.098,-5.329 -12.098,-13.105 0.003,-7.85 3.603,-13.034 12.1,-13.034 z"
     id="path3764"
     inkscape:connector-curvature="0"
     style="fill:#be1e2d" /><g
     id="g3780"><path
       style="fill:#ffffff"
       inkscape:connector-curvature="0"
       id="path3774"
       d="m 310.049,110.275 v 2.053 21.831 c 0,8.929 -5.616,11.448 -11.233,11.448 -3.96,0 -8.568,-2.592 -11.665,-6.984 l -8.28,8.281 c 5.185,6.336 11.737,9.648 19.874,9.648 12.241,0 23.546,-5.904 23.546,-22.754 v -8.771 -18.515 -9.004 H 310.05 v 12.767 z" /><path
       style="fill:#ffffff"
       inkscape:connector-curvature="0"
       id="path3776"
       d="m 360.232,122.135 c -1.368,-0.289 -8.137,-2.017 -9.433,-2.377 -9.433,-2.376 -12.098,-3.889 -12.098,-6.336 0,-2.736 3.457,-5.761 12.962,-5.761 6.769,0 12.961,3.025 16.993,7.632 l 8.568,-8.496 c -6.336,-6.48 -14.977,-10.009 -25.418,-10.009 -16.705,0 -25.563,7.632 -25.563,16.921 0,9.865 9.289,13.754 19.658,16.418 1.368,0.359 9.505,2.376 10.801,2.664 7.633,1.872 9.289,4.752 9.289,6.625 0,3.24 -3.456,6.264 -13.033,6.264 -6.769,0 -13.682,-2.52 -19.658,-7.92 l -4.326,4.326 -4.17,4.17 c 1.512,1.453 3.142,2.734 4.859,3.869 6.626,4.375 14.628,6.428 22.862,6.428 18.002,0 25.923,-8.353 25.923,-17.354 0.002,-7.776 -6.047,-14.113 -18.216,-17.064 z" /><path
       style="fill:#ffffff"
       inkscape:connector-curvature="0"
       id="path3778"
       d="m 260.813,57.542 c -2.274,0 -4.269,1.182 -5.413,2.962 -0.646,1.003 -1.024,2.194 -1.024,3.475 0,0.399 0.041,0.788 0.111,1.167 0.516,2.818 2.864,4.992 5.767,5.243 0.185,0.016 0.371,0.028 0.56,0.028 0.604,0 1.186,-0.089 1.739,-0.245 0.649,-0.182 1.259,-0.46 1.809,-0.824 1.74,-1.152 2.89,-3.125 2.89,-5.369 0,-1.563 -0.559,-2.997 -1.485,-4.112 -1.184,-1.42 -2.963,-2.325 -4.954,-2.325 z" /></g><g
     aria-label="S
"
     transform="scale(0.88709688,1.1272726)"
     style="font-style:normal;font-variant:normal;font-weight:bold;font-stretch:normal;font-size:96.06183624px;line-height:1.25;font-family:Roboto;-inkscape-font-specification:'Roboto, Bold';font-variant-ligatures:normal;font-variant-caps:normal;font-variant-numeric:normal;font-feature-settings:normal;text-align:start;letter-spacing:0px;word-spacing:0px;writing-mode:lr-tb;text-anchor:start;fill:#be1e2d;fill-opacity:1;stroke:none;stroke-width:1.28653979"
     id="text4696"><path
       d="m 54.758544,65.582872 c 0,-2.657961 -0.938104,-4.690519 -2.814311,-6.097675 C 50.068025,58.046771 46.690851,56.545805 41.812711,54.982298 36.934571,53.387522 33.07271,51.824016 30.227128,50.291779 22.472136,46.101582 18.59464,40.457323 18.59464,33.359004 c 0,-3.689875 1.031914,-6.973239 3.095743,-9.85009 2.095099,-2.908122 5.081396,-5.175206 8.958892,-6.801253 3.908766,-1.626047 8.286584,-2.43907 13.133454,-2.43907 4.87814,0 9.224688,0.891199 13.039644,2.673596 3.814955,1.751127 6.769982,4.237102 8.865081,7.457925 2.126369,3.220823 3.076174,6.100279 3.076174,10.196666 l -13.958179,0.77915 c 0,-3.127013 -0.985009,-5.550448 -2.955027,-7.270305 -1.970018,-1.751127 -4.737424,-2.626691 -8.302219,-2.626691 -3.439714,0 -6.11331,0.734848 -8.020788,2.204544 -1.907478,1.438426 -2.861217,3.345904 -2.861217,5.722433 0,2.220179 1.11009,4.080752 3.330269,5.581719 2.251449,1.500966 5.550448,2.908122 9.896996,4.221467 8.005153,2.4078 13.837032,5.394097 17.495637,8.958892 3.658605,3.564795 5.487907,8.005153 5.487907,13.321075 0,5.910054 -2.235814,10.553668 -6.707442,13.930842 -4.471629,3.345904 -10.491129,5.018856 -18.0585,5.018856 -5.253381,0 -10.037711,-0.953739 -14.352989,-2.861217 -4.315278,-1.938748 -7.614277,-4.581074 -9.896996,-7.926978 -2.251449,-3.345903 -4.079264,-6.257599 -4.079264,-10.666687 l 14.820554,-0.9658 c 0,7.536101 4.502898,11.304151 13.508695,11.304151 3.345904,0 5.95696,-0.672308 7.833168,-2.016923 1.876207,-1.375886 2.814311,-3.283364 2.814311,-5.722434 z"
       style="font-style:normal;font-variant:normal;font-weight:bold;font-stretch:normal;font-size:96.06183624px;font-family:Roboto;-inkscape-font-specification:'Roboto, Bold';font-variant-ligatures:normal;font-variant-caps:normal;font-variant-numeric:normal;font-feature-settings:normal;text-align:start;writing-mode:lr-tb;text-anchor:start;fill:#be1e2d;fill-opacity:1;stroke-width:1.28653979"
       id="path4554"
       inkscape:connector-curvature="0"
       sodipodi:nodetypes="scccsccscccccscsccsscsccccscs" /></g><g
     aria-label="p"
     transform="matrix(1.0663607,0,0,0.95968161,0,-2.6202216)"
     style="font-style:normal;font-variant:normal;font-weight:bold;font-stretch:normal;font-size:87.97533417px;line-height:1.25;font-family:Roboto;-inkscape-font-specification:'Roboto, Bold';font-variant-ligatures:normal;font-variant-caps:normal;font-variant-numeric:normal;font-feature-settings:normal;text-align:start;letter-spacing:0px;word-spacing:0px;writing-mode:lr-tb;text-anchor:start;fill:#be1e2d;fill-opacity:1;stroke:none;stroke-width:1.17824566"
     id="text4700"><path
       d="m 101.08562,78.895906 c 0,7.159451 -1.632354,12.901331 -4.897062,17.22564 -3.236072,4.295674 -7.617656,6.443504 -13.144752,6.443504 -4.6966,0 -8.491109,-1.63235 -11.383527,-4.897063 V 119.57591 H 59.245791 V 55.226761 l 11.086883,-0.842365 0.855081,5.395776 c 3.006969,-3.608363 6.930348,-5.412545 11.770137,-5.412545 5.727561,0 10.18074,2.119198 13.359536,6.357593 3.178795,4.238395 4.768192,10.080507 4.768192,17.526336 z m -12.414486,-0.90209 c 0,-4.324309 -0.773221,-7.660613 -2.319662,-10.008913 -1.517803,-2.3483 -3.737233,-3.52245 -6.658289,-3.52245 -3.894741,0 -6.572376,1.489166 -8.032904,4.467498 v 19.02982 c 1.517803,3.064245 4.224076,4.596368 8.118817,4.596368 5.928025,0 8.892038,-4.854108 8.892038,-14.562323 z"
       style="font-style:normal;font-variant:normal;font-weight:bold;font-stretch:normal;font-size:87.97533417px;font-family:Roboto;-inkscape-font-specification:'Roboto, Bold';font-variant-ligatures:normal;font-variant-caps:normal;font-variant-numeric:normal;font-feature-settings:normal;text-align:start;writing-mode:lr-tb;text-anchor:start;fill:#be1e2d;fill-opacity:1;stroke-width:1.17824566"
       id="path4557"
       inkscape:connector-curvature="0"
       sodipodi:nodetypes="scsccccccssssscsccss" /></g><text
     xml:space="preserve"
     style="font-style:normal;font-variant:normal;font-weight:bold;font-stretch:normal;font-size:88.59963226px;line-height:1.25;font-family:Roboto;-inkscape-font-specification:'Roboto, Bold';font-variant-ligatures:normal;font-variant-caps:normal;font-variant-numeric:normal;font-feature-settings:normal;text-align:start;letter-spacing:0px;word-spacing:0px;writing-mode:lr-tb;text-anchor:start;fill:#be1e2d;fill-opacity:1;stroke:none;stroke-width:1.1866045"
     x="102.0227"
     y="99.2845"
     id="text4704"
     transform="scale(1.0442229,0.95764993)"><tspan
       sodipodi:role="line"
       id="tspan4702"
       x="102.0227"
       y="99.2845"
       style="font-style:normal;font-variant:normal;font-weight:bold;font-stretch:normal;font-size:88.59963226px;font-family:Roboto;-inkscape-font-specification:'Roboto, Bold';font-variant-ligatures:normal;font-variant-caps:normal;font-variant-numeric:normal;font-feature-settings:normal;text-align:start;writing-mode:lr-tb;text-anchor:start;fill:#be1e2d;fill-opacity:1;stroke-width:1.1866045">e</tspan></text>
<g
     aria-label="c"
     transform="matrix(1.0383423,0,0,0.97674906,0,-0.8372246)"
     style="font-style:normal;font-variant:normal;font-weight:bold;font-stretch:normal;font-size:86.95897675px;line-height:1.25;font-family:Roboto;-inkscape-font-specification:'Roboto, Bold';font-variant-ligatures:normal;font-variant-caps:normal;font-variant-numeric:normal;font-feature-settings:normal;text-align:start;letter-spacing:0px;word-spacing:0px;writing-mode:lr-tb;text-anchor:start;fill:#be1e2d;fill-opacity:1;stroke:none;stroke-width:1.16463125"
     id="text4708"><path
       d="m 172.45872,89.227991 c 2.26455,0 4.10451,-0.622753 5.51986,-1.868259 1.41535,-1.245507 2.15133,-2.901464 2.20794,-4.967872 l 11.46512,1.207054 c -0.0283,3.113766 -0.83588,4.765715 -2.50597,7.369955 -1.67011,2.575933 -3.96298,4.585727 -6.87859,6.029382 -2.88731,1.415348 -6.086,2.123022 -9.59606,2.123022 -6.56721,0 -11.74739,-2.080561 -15.54052,-6.241684 -3.79313,-4.18943 -5.6897,-9.96405 -5.6897,-17.323859 v -0.806748 c 0,-7.07674 1.88241,-12.723978 5.64724,-16.941715 3.76483,-4.217737 8.93085,-6.326605 15.49806,-6.326605 5.74631,0 10.34619,1.641803 13.79964,4.92541 3.48176,3.255301 5.20928,6.689582 5.2659,12.124518 l -11.46512,0.910837 c -0.0566,-2.377785 -0.79258,-4.302658 -2.20794,-5.77462 -1.41535,-1.500269 -3.28361,-2.250403 -5.60478,-2.250403 -2.85901,0 -5.02449,1.047358 -6.49645,3.142073 -1.44365,2.066408 -2.16548,5.434936 -2.16548,10.105584 v 1.273813 c 0,4.727262 0.72183,8.124097 2.16548,10.190505 1.44365,2.066408 3.63744,3.099612 6.58137,3.099612 z"
       style="font-style:normal;font-variant:normal;font-weight:bold;font-stretch:normal;font-size:86.95897675px;font-family:Roboto;-inkscape-font-specification:'Roboto, Bold';font-variant-ligatures:normal;font-variant-caps:normal;font-variant-numeric:normal;font-feature-settings:normal;text-align:start;writing-mode:lr-tb;text-anchor:start;fill:#be1e2d;fill-opacity:1;stroke-width:1.16463125"
       id="path4560"
       inkscape:connector-curvature="0"
       sodipodi:nodetypes="scccccscssssccccscssss" /></g><g
     aria-label="t"
     transform="matrix(0.89199883,0,0,1.1301791,0,-0.14027111)"
     style="font-style:normal;font-variant:normal;font-weight:bold;font-stretch:normal;font-size:104.35674286px;line-height:1.25;font-family:Roboto;-inkscape-font-specification:'Roboto, Bold';font-variant-ligatures:normal;font-variant-caps:normal;font-variant-numeric:normal;font-feature-settings:normal;text-align:start;letter-spacing:0px;word-spacing:0px;writing-mode:lr-tb;text-anchor:start;fill:#be1e2d;fill-opacity:1;stroke:none;stroke-width:1.39762712"
     id="text4712"><path
       d="m 242.58621,15.412049 v 13.554147 h 9.42676 V 39.76875 h -9.42676 v 27.515938 c 0,2.038217 0.39066,3.49894 1.17198,4.382168 0.78131,0.883227 2.27601,1.324841 4.48408,1.324841 1.63057,0 3.07431,-0.118896 4.33121,-0.356688 v 11.159242 c -2.88747,0.883227 -5.85987,1.324841 -8.9172,1.324841 -10.32697,0 -15.59237,-5.21444 -15.79619,-15.64332 V 39.76875 h -8.05096 V 28.966196 h 8.05096 l -0.01,-11.413341 z"
       style="font-style:normal;font-variant:normal;font-weight:bold;font-stretch:normal;font-size:104.35674286px;font-family:Roboto;-inkscape-font-specification:'Roboto, Bold';font-variant-ligatures:normal;font-variant-caps:normal;font-variant-numeric:normal;font-feature-settings:normal;text-align:start;writing-mode:lr-tb;text-anchor:start;fill:#be1e2d;fill-opacity:1;stroke-width:1.39762712"
       id="path4563"
       inkscape:connector-curvature="0"
       sodipodi:nodetypes="cccccscsccsccccccc" /></g><g
     aria-label="r"
     transform="matrix(1.1091738,0,0,0.89095637,0,1.1303545)"
     style="font-style:normal;font-variant:normal;font-weight:bold;font-stretch:normal;font-size:96.98661041px;line-height:1.25;font-family:Roboto;-inkscape-font-specification:'Roboto, Bold';font-variant-ligatures:normal;font-variant-caps:normal;font-variant-numeric:normal;font-feature-settings:normal;text-align:start;letter-spacing:0px;word-spacing:0px;writing-mode:lr-tb;text-anchor:start;fill:#be1e2d;fill-opacity:1;stroke:none;stroke-width:1.2989279"
     id="text4716"><path
       d="m 278.93664,68.030862 c -1.86269,-0.252856 -3.50439,-0.379284 -4.9251,-0.379284 -5.17767,0 -8.57157,1.754185 -10.1817,5.262554 v 33.566558 h -13.6861 l 0.0437,-49.910182 12.88473,-1.387861 0.37885,6.115939 c 2.74669,-4.709432 6.55102,-7.064147 11.41297,-7.064147 1.51542,0 2.93612,0.205444 4.26211,0.616334 z"
       style="font-style:normal;font-variant:normal;font-weight:bold;font-stretch:normal;font-size:96.98661041px;font-family:Roboto;-inkscape-font-specification:'Roboto, Bold';font-variant-ligatures:normal;font-variant-caps:normal;font-variant-numeric:normal;font-feature-settings:normal;text-align:start;writing-mode:lr-tb;text-anchor:start;fill:#be1e2d;fill-opacity:1;stroke-width:1.29966342"
       id="path4566"
       inkscape:connector-curvature="0"
       sodipodi:nodetypes="csccccccscc" /></g></svg>